<svg xmlns="http://www.w3.org/2000/svg" width="1303" height="294" fill="none" viewBox="0 0 1303 294"><path fill="#fff" d="M1205.69 301.5q-31.95 0-57.15-13.95-24.75-13.95-38.7-40.05-13.95-26.55-13.95-63t13.95-62.55q13.95-26.55 38.25-40.5t55.35-13.95q31.5 0 53.55 13.5 22.5 13.5 34.2 36.9 11.7 22.95 11.7 51.75 0 7.65-.45 13.95t-1.35 11.25h-181.8V162.9h166.05l-18.45 3.6q0-32.4-18-49.95Q1231.34 99 1202.54 99q-22.05 0-38.25 10.35-15.75 9.9-24.75 29.25-8.55 18.9-8.55 45.9 0 26.55 9 45.9t25.2 29.7q16.65 9.9 39.6 9.9 24.75 0 40.05-9.45 15.75-9.45 25.2-25.65l28.35 16.65q-8.55 15.3-22.05 26.55-13.05 11.25-31.05 17.55-17.55 5.85-39.6 5.85M957.484 297V72h29.25l4.95 36.9c6.3-13.8 15.446-24.15 27.446-31.05q18.45-10.35 44.55-10.35 5.85 0 12.6.9 7.2.9 12.15 3.6l-6.3 32.85q-4.95-1.8-10.8-2.7t-16.65-.9q-13.95 0-28.35 8.1-13.95 8.1-23.4 24.75-9.445 16.2-9.446 41.4V297zM803.31 67.5q31.95 0 56.25 13.95 24.75 13.95 38.7 40.5 13.95 26.1 13.95 62.55t-13.95 63q-13.95 26.1-38.7 40.05-24.3 13.95-56.25 13.95-31.5 0-56.25-13.95t-38.7-40.05q-13.95-26.55-13.95-63t13.95-62.55q13.95-26.55 38.7-40.5t56.25-13.95m0 31.05q-22.95 0-39.15 10.35t-25.2 29.7q-8.55 18.9-8.55 45.9 0 26.55 8.55 45.9 9 19.35 25.2 29.7t39.15 10.35 39.15-10.35 24.75-29.7q9-19.35 9-45.9 0-27-9-45.9-8.55-19.35-24.75-29.7t-39.15-10.35M556 297V72h29.25l4.95 36.9q9.45-20.7 27.45-31.05Q636.1 67.5 662.2 67.5q5.85 0 12.6.9 7.2.9 12.15 3.6l-6.3 32.85q-4.95-1.8-10.8-2.7t-16.65-.9q-13.95 0-28.35 8.1-13.95 8.1-23.4 24.75-9.45 16.2-9.45 41.4V297zm-173.785 4.5q-21.6 0-40.95-8.1-18.9-8.1-31.05-26.1-11.7-18.45-11.7-47.7V72h36v138.15q0 34.2 14.85 47.25 14.85 12.6 41.85 12.6 12.6 0 24.75-4.05 12.15-4.5 21.6-13.5 9.9-9.45 15.3-23.85 5.85-14.4 5.85-34.2V72h36v225h-31.5l-2.25-34.2q-11.7 20.25-31.95 29.7-19.8 9-46.8 9M273.6 297h-38.25l-31.5-82.35H69.3L37.8 297H0L115.65 0h42.75zM82.35 180.9H190.8L136.35 34.65z"/></svg>