<svg xmlns="http://www.w3.org/2000/svg" width="126" height="29" fill="none" viewBox="0 0 126 29"><path fill="#1f1f1f" d="M115.459 28.14q-3.318 0-5.796-1.302a9.17 9.17 0 0 1-3.78-3.738q-1.344-2.436-1.344-5.88t1.344-5.88 3.738-3.738q2.436-1.302 5.544-1.302 3.192 0 5.418 1.302 2.226 1.26 3.402 3.486 1.176 2.184 1.176 4.998 0 .84-.042 1.596t-.126 1.344h-16.758v-3.99h14.238l-2.772 1.008q0-2.646-1.218-4.074-1.176-1.428-3.36-1.428-1.596 0-2.772.756-1.134.756-1.722 2.268-.588 1.47-.588 3.738 0 2.226.63 3.696.672 1.428 1.848 2.142 1.218.714 2.898.714 1.848 0 2.982-.714t1.764-1.974l4.578 1.764a7.26 7.26 0 0 1-2.058 2.814q-1.344 1.176-3.234 1.806-1.848.588-3.99.588m-24.952-.42v-21h4.998l.378 4.116q.84-2.184 2.436-3.36Q99.957 6.3 102.393 6.3q.714 0 1.302.126t.966.336l-.672 4.83a4.5 4.5 0 0 0-1.05-.252 11.5 11.5 0 0 0-1.554-.084q-1.26 0-2.436.63-1.176.588-1.932 1.848-.756 1.218-.756 3.108V27.72zM77.04 6.3q3.192 0 5.586 1.302a9.17 9.17 0 0 1 3.78 3.738q1.386 2.436 1.386 5.88 0 3.402-1.386 5.88a9.17 9.17 0 0 1-3.78 3.738q-2.394 1.302-5.586 1.302-3.15 0-5.586-1.302T67.632 23.1q-1.344-2.478-1.344-5.88 0-3.444 1.344-5.88 1.386-2.436 3.822-3.738T77.04 6.3m0 4.284q-1.596 0-2.73.756-1.092.714-1.68 2.184t-.588 3.696.588 3.696 1.68 2.226q1.134.714 2.73.714 1.554 0 2.646-.714 1.134-.756 1.722-2.226t.588-3.696-.588-3.696-1.722-2.184q-1.092-.756-2.646-.756M52.256 27.72v-21h4.998l.378 4.116q.84-2.184 2.436-3.36Q61.706 6.3 64.142 6.3q.714 0 1.302.126t.966.336l-.672 4.83a4.5 4.5 0 0 0-1.05-.252 11.5 11.5 0 0 0-1.554-.084q-1.26 0-2.436.63-1.176.588-1.932 1.848-.756 1.218-.756 3.108V27.72zm-16.556.42q-2.1 0-3.78-.756t-2.687-2.394q-.966-1.68-.966-4.326V6.72h5.754v12.558q0 2.436 1.008 3.402 1.008.924 2.898.924.882 0 1.722-.294.84-.336 1.47-1.008.672-.672 1.05-1.722.378-1.092.378-2.562V6.72H48.3v21h-5.124l-.21-3.654q-1.05 2.1-2.898 3.108-1.806.966-4.368.966m-8.526-.42h-6.006l-2.31-6.762H8.232l-2.31 6.762H0L10.122 0h6.93zM9.534 16.674h8.022L13.524 4.578z"/></svg>